<svg width="335" height="48" viewBox="0 0 335 48" fill="none" xmlns="http://www.w3.org/2000/svg">
<rect width="335" height="48" fill="#979797"/>
<path d="M45.2962 21.6305V19.4505C45.2962 18.0712 45.8441 16.7485 46.8194 15.7732C47.7947 14.7979 49.1175 14.25 50.4967 14.25C51.876 14.25 53.1987 14.7979 54.174 15.7732C55.1493 16.7485 55.6972 18.0712 55.6972 19.4505V21.6305M43.5862 21.6305H57.4162C57.668 21.6308 57.9094 21.731 58.0873 21.9091C58.2653 22.0872 58.3652 22.3287 58.3652 22.5805V32.8005C58.3652 33.0524 58.2652 33.2939 58.0871 33.4721C57.9091 33.6502 57.6676 33.7504 57.4157 33.7505H43.5867C43.3348 33.7505 43.0931 33.6504 42.915 33.4723C42.7368 33.2941 42.6367 33.0525 42.6367 32.8005V22.5805C42.6367 22.3285 42.7368 22.0869 42.915 21.9087C43.0931 21.7306 43.3348 21.6305 43.5867 21.6305H43.5862Z" stroke="white" stroke-linecap="round" stroke-linejoin="round"/>
<path d="M50.4955 29.7069C51.6095 29.7069 52.5125 28.8038 52.5125 27.6899C52.5125 26.5759 51.6095 25.6729 50.4955 25.6729C49.3816 25.6729 48.4785 26.5759 48.4785 27.6899C48.4785 28.8038 49.3816 29.7069 50.4955 29.7069Z" stroke="white" stroke-linecap="round" stroke-linejoin="round"/>
<path d="M81.5517 22.018H83.2617C83.1657 21.334 82.9617 20.734 82.6497 20.218C82.3377 19.69 81.9477 19.252 81.4797 18.904C81.0117 18.556 80.4777 18.292 79.8777 18.112C79.2777 17.932 78.6417 17.842 77.9697 17.842C76.9857 17.842 76.1097 18.022 75.3417 18.382C74.5857 18.73 73.9497 19.21 73.4337 19.822C72.9297 20.434 72.5457 21.154 72.2817 21.982C72.0177 22.798 71.8857 23.674 71.8857 24.61C71.8857 25.546 72.0057 26.422 72.2457 27.238C72.4977 28.054 72.8697 28.762 73.3617 29.362C73.8537 29.962 74.4717 30.436 75.2157 30.784C75.9597 31.12 76.8297 31.288 77.8257 31.288C79.4697 31.288 80.7657 30.838 81.7137 29.938C82.6617 29.038 83.2197 27.778 83.3877 26.158H81.6777C81.6417 26.686 81.5337 27.178 81.3537 27.634C81.1737 28.09 80.9217 28.486 80.5977 28.822C80.2857 29.146 79.9077 29.404 79.4637 29.596C79.0317 29.776 78.5337 29.866 77.9697 29.866C77.2017 29.866 76.5417 29.722 75.9897 29.434C75.4377 29.146 74.9817 28.762 74.6217 28.282C74.2737 27.79 74.0157 27.22 73.8477 26.572C73.6797 25.912 73.5957 25.216 73.5957 24.484C73.5957 23.812 73.6797 23.164 73.8477 22.54C74.0157 21.916 74.2737 21.364 74.6217 20.884C74.9817 20.392 75.4317 20.002 75.9717 19.714C76.5237 19.426 77.1837 19.282 77.9517 19.282C78.8517 19.282 79.6257 19.51 80.2737 19.966C80.9337 20.422 81.3597 21.106 81.5517 22.018ZM89.166 24.574C89.166 23.926 89.25 23.29 89.418 22.666C89.586 22.03 89.85 21.46 90.21 20.956C90.57 20.452 91.032 20.05 91.596 19.75C92.16 19.438 92.832 19.282 93.612 19.282C94.392 19.282 95.064 19.438 95.628 19.75C96.192 20.05 96.654 20.452 97.014 20.956C97.374 21.46 97.638 22.03 97.806 22.666C97.974 23.29 98.058 23.926 98.058 24.574C98.058 25.222 97.974 25.864 97.806 26.5C97.638 27.124 97.374 27.688 97.014 28.192C96.654 28.696 96.192 29.104 95.628 29.416C95.064 29.716 94.392 29.866 93.612 29.866C92.832 29.866 92.16 29.716 91.596 29.416C91.032 29.104 90.57 28.696 90.21 28.192C89.85 27.688 89.586 27.124 89.418 26.5C89.25 25.864 89.166 25.222 89.166 24.574ZM87.456 24.574C87.456 25.45 87.582 26.296 87.834 27.112C88.098 27.916 88.488 28.63 89.004 29.254C89.52 29.878 90.162 30.376 90.93 30.748C91.698 31.108 92.592 31.288 93.612 31.288C94.632 31.288 95.526 31.108 96.294 30.748C97.062 30.376 97.704 29.878 98.22 29.254C98.736 28.63 99.12 27.916 99.372 27.112C99.636 26.296 99.768 25.45 99.768 24.574C99.768 23.698 99.636 22.858 99.372 22.054C99.12 21.238 98.736 20.518 98.22 19.894C97.704 19.27 97.062 18.772 96.294 18.4C95.526 18.028 94.632 17.842 93.612 17.842C92.592 17.842 91.698 18.028 90.93 18.4C90.162 18.772 89.52 19.27 89.004 19.894C88.488 20.518 88.098 21.238 87.834 22.054C87.582 22.858 87.456 23.698 87.456 24.574ZM104.558 18.148V31H106.178V20.308H106.214L110.228 31H111.686L115.7 20.308H115.736V31H117.356V18.148H115.016L110.948 28.948L106.898 18.148H104.558ZM124.581 24.304V19.588H127.929C128.901 19.588 129.609 19.792 130.053 20.2C130.509 20.596 130.737 21.178 130.737 21.946C130.737 22.714 130.509 23.302 130.053 23.71C129.609 24.118 128.901 24.316 127.929 24.304H124.581ZM122.871 18.148V31H124.581V25.744H128.505C129.801 25.756 130.779 25.426 131.439 24.754C132.111 24.082 132.447 23.146 132.447 21.946C132.447 20.746 132.111 19.816 131.439 19.156C130.779 18.484 129.801 18.148 128.505 18.148H122.871ZM137.213 18.148V31H145.727V29.56H138.923V18.148H137.213ZM149.885 18.148V31H158.813V29.56H151.595V25.114H158.273V23.674H151.595V19.588H158.759V18.148H149.885ZM166.475 19.588V31H168.185V19.588H172.469V18.148H162.191V19.588H166.475ZM176.565 18.148V31H185.493V29.56H178.275V25.114H184.953V23.674H178.275V19.588H185.439V18.148H176.565ZM199.629 24.304V19.588H202.977C203.949 19.588 204.657 19.792 205.101 20.2C205.557 20.596 205.785 21.178 205.785 21.946C205.785 22.714 205.557 23.302 205.101 23.71C204.657 24.118 203.949 24.316 202.977 24.304H199.629ZM197.919 18.148V31H199.629V25.744H203.553C204.849 25.756 205.827 25.426 206.487 24.754C207.159 24.082 207.495 23.146 207.495 21.946C207.495 20.746 207.159 19.816 206.487 19.156C205.827 18.484 204.849 18.148 203.553 18.148H197.919ZM213.139 25.69L215.317 19.696H215.353L217.495 25.69H213.139ZM214.417 18.148L209.413 31H211.159L212.599 27.13H218.035L219.439 31H221.329L216.307 18.148H214.417ZM229.241 25.744L234.155 18.148H232.211L228.449 24.268L224.597 18.148H222.563L227.531 25.744V31H229.241V25.744ZM238.309 18.148V31H239.929V20.308H239.965L243.979 31H245.437L249.451 20.308H249.487V31H251.107V18.148H248.767L244.699 28.948L240.649 18.148H238.309ZM256.622 18.148V31H265.55V29.56H258.332V25.114H265.01V23.674H258.332V19.588H265.496V18.148H256.622ZM270.278 18.148V31H271.898V20.686H271.934L278.648 31H280.52V18.148H278.9V28.57H278.864L272.096 18.148H270.278ZM288.872 19.588V31H290.582V19.588H294.866V18.148H284.588V19.588H288.872Z" fill="white"/>
</svg>
