<svg width="215" height="48" viewBox="0 0 215 48" fill="none" xmlns="http://www.w3.org/2000/svg">
<rect x="0.5" y="0.5" width="214" height="47" fill="#979797"/>
<path d="M21.2962 21.63V19.45C21.2962 18.0708 21.8441 16.748 22.8194 15.7727C23.7947 14.7974 25.1175 14.2495 26.4967 14.2495C27.876 14.2495 29.1987 14.7974 30.174 15.7727C31.1493 16.748 31.6972 18.0708 31.6972 19.45V21.63M19.5862 21.63H33.4162C33.668 21.6303 33.9094 21.7305 34.0873 21.9086C34.2653 22.0867 34.3652 22.3282 34.3652 22.58V32.8C34.3652 33.0519 34.2652 33.2934 34.0871 33.4716C33.9091 33.6497 33.6676 33.7499 33.4157 33.75H19.5867C19.3348 33.75 19.0931 33.6499 18.915 33.4718C18.7368 33.2936 18.6367 33.052 18.6367 32.8V22.58C18.6367 22.3281 18.7368 22.0864 18.915 21.9083C19.0931 21.7301 19.3348 21.63 19.5867 21.63H19.5862Z" stroke="white" stroke-linecap="round" stroke-linejoin="round"/>
<path d="M26.4955 29.7071C27.6095 29.7071 28.5125 28.8041 28.5125 27.6901C28.5125 26.5761 27.6095 25.6731 26.4955 25.6731C25.3816 25.6731 24.4785 26.5761 24.4785 27.6901C24.4785 28.8041 25.3816 29.7071 26.4955 29.7071Z" stroke="white" stroke-linecap="round" stroke-linejoin="round"/>
<path d="M50.3654 24.304V19.588H53.7134C54.6854 19.588 55.3934 19.792 55.8374 20.2C56.2934 20.596 56.5214 21.178 56.5214 21.946C56.5214 22.714 56.2934 23.302 55.8374 23.71C55.3934 24.118 54.6854 24.316 53.7134 24.304H50.3654ZM48.6554 18.148V31H50.3654V25.744H54.2894C55.5854 25.756 56.5634 25.426 57.2234 24.754C57.8954 24.082 58.2314 23.146 58.2314 21.946C58.2314 20.746 57.8954 19.816 57.2234 19.156C56.5634 18.484 55.5854 18.148 54.2894 18.148H48.6554ZM63.8753 25.69L66.0533 19.696H66.0893L68.2313 25.69H63.8753ZM65.1533 18.148L60.1493 31H61.8953L63.3353 27.13H68.7713L70.1753 31H72.0653L67.0433 18.148H65.1533ZM79.9772 25.744L84.8912 18.148H82.9472L79.1852 24.268L75.3332 18.148H73.2992L78.2672 25.744V31H79.9772V25.744ZM165.195 22.756H166.725C166.713 22.372 166.749 21.994 166.833 21.622C166.929 21.238 167.079 20.896 167.283 20.596C167.487 20.296 167.745 20.056 168.057 19.876C168.381 19.684 168.765 19.588 169.209 19.588C169.545 19.588 169.863 19.642 170.163 19.75C170.463 19.858 170.721 20.014 170.937 20.218C171.165 20.422 171.345 20.668 171.477 20.956C171.609 21.232 171.675 21.544 171.675 21.892C171.675 22.336 171.603 22.726 171.459 23.062C171.327 23.398 171.123 23.71 170.847 23.998C170.583 24.286 170.247 24.574 169.839 24.862C169.431 25.138 168.957 25.444 168.417 25.78C167.973 26.044 167.547 26.326 167.139 26.626C166.731 26.926 166.365 27.274 166.041 27.67C165.717 28.066 165.447 28.534 165.231 29.074C165.027 29.602 164.895 30.244 164.835 31H173.169V29.65H166.617C166.689 29.254 166.839 28.906 167.067 28.606C167.307 28.294 167.589 28.006 167.913 27.742C168.249 27.478 168.615 27.232 169.011 27.004C169.407 26.764 169.803 26.524 170.199 26.284C170.595 26.032 170.979 25.768 171.351 25.492C171.723 25.216 172.053 24.91 172.341 24.574C172.629 24.226 172.857 23.836 173.025 23.404C173.205 22.972 173.295 22.474 173.295 21.91C173.295 21.31 173.187 20.782 172.971 20.326C172.767 19.87 172.485 19.492 172.125 19.192C171.765 18.88 171.339 18.646 170.847 18.49C170.367 18.322 169.851 18.238 169.299 18.238C168.627 18.238 168.027 18.352 167.499 18.58C166.971 18.808 166.527 19.126 166.167 19.534C165.819 19.93 165.561 20.404 165.393 20.956C165.225 21.508 165.159 22.108 165.195 22.756ZM184.527 21.496H186.057C185.961 20.44 185.601 19.636 184.977 19.084C184.353 18.52 183.513 18.238 182.457 18.238C181.545 18.238 180.789 18.43 180.189 18.814C179.589 19.198 179.109 19.708 178.749 20.344C178.389 20.98 178.131 21.712 177.975 22.54C177.831 23.356 177.759 24.202 177.759 25.078C177.759 25.75 177.807 26.446 177.903 27.166C178.011 27.886 178.221 28.546 178.533 29.146C178.845 29.746 179.289 30.238 179.865 30.622C180.441 31.006 181.203 31.198 182.151 31.198C182.955 31.198 183.627 31.066 184.167 30.802C184.719 30.526 185.157 30.184 185.481 29.776C185.817 29.356 186.057 28.894 186.201 28.39C186.345 27.886 186.417 27.4 186.417 26.932C186.417 26.344 186.327 25.798 186.147 25.294C185.967 24.79 185.709 24.352 185.373 23.98C185.049 23.608 184.641 23.32 184.149 23.116C183.669 22.9 183.123 22.792 182.511 22.792C181.815 22.792 181.197 22.924 180.657 23.188C180.129 23.452 179.685 23.878 179.325 24.466L179.289 24.43C179.301 23.938 179.349 23.41 179.433 22.846C179.517 22.282 179.667 21.76 179.883 21.28C180.111 20.788 180.423 20.386 180.819 20.074C181.215 19.75 181.737 19.588 182.385 19.588C182.997 19.588 183.489 19.762 183.861 20.11C184.233 20.458 184.455 20.92 184.527 21.496ZM182.223 24.142C182.655 24.142 183.033 24.22 183.357 24.376C183.681 24.532 183.951 24.742 184.167 25.006C184.383 25.258 184.539 25.564 184.635 25.924C184.743 26.272 184.797 26.644 184.797 27.04C184.797 27.412 184.737 27.772 184.617 28.12C184.509 28.456 184.347 28.756 184.131 29.02C183.915 29.284 183.645 29.494 183.321 29.65C183.009 29.794 182.643 29.866 182.223 29.866C181.803 29.866 181.425 29.794 181.089 29.65C180.765 29.494 180.489 29.29 180.261 29.038C180.045 28.786 179.877 28.486 179.757 28.138C179.637 27.79 179.577 27.418 179.577 27.022C179.577 26.626 179.631 26.254 179.739 25.906C179.859 25.546 180.033 25.24 180.261 24.988C180.489 24.724 180.765 24.52 181.089 24.376C181.413 24.22 181.791 24.142 182.223 24.142ZM195.849 26.662H191.565L195.813 20.416H195.849V26.662ZM197.289 26.662V18.238H196.065L190.251 26.536V28.012H195.849V31H197.289V28.012H199.017V26.662H197.289Z" fill="white"/>
<rect x="0.5" y="0.5" width="214" height="47" stroke="black"/>
</svg>
