<svg width="24" height="25" viewBox="0 0 24 25" fill="none" xmlns="http://www.w3.org/2000/svg">
<path fill-rule="evenodd" clip-rule="evenodd" d="M7.15684 3.67172C7.26802 3.56185 7.41803 3.50024 7.57434 3.50024C7.73064 3.50024 7.88065 3.56185 7.99184 3.67172L16.8208 12.0997C16.8772 12.15 16.9223 12.2116 16.9532 12.2806C16.9841 12.3495 17.0001 12.4242 17.0001 12.4997C17.0001 12.5753 16.9841 12.6499 16.9532 12.7189C16.9223 12.7878 16.8772 12.8494 16.8208 12.8997L8.02084 21.3277C7.90938 21.4369 7.75988 21.4986 7.60384 21.4997C7.44771 21.499 7.29805 21.4373 7.18684 21.3277C7.13047 21.2774 7.08536 21.2158 7.05447 21.1469C7.02359 21.0779 7.00762 21.0033 7.00762 20.9277C7.00762 20.8522 7.02359 20.7775 7.05447 20.7086C7.08536 20.6396 7.13047 20.578 7.18684 20.5277L15.5378 12.4987L7.15484 4.46972C7.0549 4.36056 6.99963 4.21782 7 4.06983C7.00037 3.92183 7.05635 3.77937 7.15684 3.67072V3.67172Z" fill="black"/>
</svg>
