<svg width="206" height="48" viewBox="0 0 206 48" fill="none" xmlns="http://www.w3.org/2000/svg">
<rect x="0.5" y="0.5" width="205" height="47" fill="black"/>
<path d="M54.6038 22.018H56.3138C56.2178 21.334 56.0138 20.734 55.7018 20.218C55.3898 19.69 54.9998 19.252 54.5318 18.904C54.0638 18.556 53.5298 18.292 52.9298 18.112C52.3298 17.932 51.6938 17.842 51.0218 17.842C50.0378 17.842 49.1618 18.022 48.3938 18.382C47.6378 18.73 47.0018 19.21 46.4858 19.822C45.9818 20.434 45.5978 21.154 45.3338 21.982C45.0698 22.798 44.9378 23.674 44.9378 24.61C44.9378 25.546 45.0578 26.422 45.2978 27.238C45.5498 28.054 45.9218 28.762 46.4138 29.362C46.9058 29.962 47.5238 30.436 48.2678 30.784C49.0118 31.12 49.8818 31.288 50.8778 31.288C52.5218 31.288 53.8178 30.838 54.7658 29.938C55.7138 29.038 56.2718 27.778 56.4398 26.158H54.7298C54.6938 26.686 54.5858 27.178 54.4058 27.634C54.2258 28.09 53.9738 28.486 53.6498 28.822C53.3378 29.146 52.9598 29.404 52.5158 29.596C52.0838 29.776 51.5858 29.866 51.0218 29.866C50.2538 29.866 49.5938 29.722 49.0418 29.434C48.4898 29.146 48.0338 28.762 47.6738 28.282C47.3258 27.79 47.0678 27.22 46.8998 26.572C46.7318 25.912 46.6478 25.216 46.6478 24.484C46.6478 23.812 46.7318 23.164 46.8998 22.54C47.0678 21.916 47.3258 21.364 47.6738 20.884C48.0338 20.392 48.4838 20.002 49.0238 19.714C49.5758 19.426 50.2358 19.282 51.0038 19.282C51.9038 19.282 52.6778 19.51 53.3258 19.966C53.9858 20.422 54.4118 21.106 54.6038 22.018ZM61.228 18.148V31H62.938V25.114H69.706V31H71.416V18.148H69.706V23.674H62.938V18.148H61.228ZM76.8883 18.148V31H85.8163V29.56H78.5983V25.114H85.2763V23.674H78.5983V19.588H85.7623V18.148H76.8883ZM99.5982 22.018H101.308C101.212 21.334 101.008 20.734 100.696 20.218C100.384 19.69 99.9942 19.252 99.5262 18.904C99.0582 18.556 98.5242 18.292 97.9242 18.112C97.3242 17.932 96.6882 17.842 96.0162 17.842C95.0322 17.842 94.1562 18.022 93.3882 18.382C92.6322 18.73 91.9962 19.21 91.4802 19.822C90.9762 20.434 90.5922 21.154 90.3282 21.982C90.0642 22.798 89.9322 23.674 89.9322 24.61C89.9322 25.546 90.0522 26.422 90.2922 27.238C90.5442 28.054 90.9162 28.762 91.4082 29.362C91.9002 29.962 92.5182 30.436 93.2622 30.784C94.0062 31.12 94.8762 31.288 95.8722 31.288C97.5162 31.288 98.8122 30.838 99.7602 29.938C100.708 29.038 101.266 27.778 101.434 26.158H99.7242C99.6882 26.686 99.5802 27.178 99.4002 27.634C99.2202 28.09 98.9682 28.486 98.6442 28.822C98.3322 29.146 97.9542 29.404 97.5102 29.596C97.0782 29.776 96.5802 29.866 96.0162 29.866C95.2482 29.866 94.5882 29.722 94.0362 29.434C93.4842 29.146 93.0282 28.762 92.6682 28.282C92.3202 27.79 92.0622 27.22 91.8942 26.572C91.7262 25.912 91.6422 25.216 91.6422 24.484C91.6422 23.812 91.7262 23.164 91.8942 22.54C92.0622 21.916 92.3202 21.364 92.6682 20.884C93.0282 20.392 93.4782 20.002 94.0182 19.714C94.5702 19.426 95.2302 19.282 95.9982 19.282C96.8982 19.282 97.6722 19.51 98.3202 19.966C98.9802 20.422 99.4062 21.106 99.5982 22.018ZM106.222 18.148V31H107.932V26.5L110.074 24.502L114.718 31H116.878L111.244 23.332L116.662 18.148H114.448L107.932 24.556V18.148H106.222ZM121.888 24.574C121.888 23.926 121.972 23.29 122.14 22.666C122.308 22.03 122.572 21.46 122.932 20.956C123.292 20.452 123.754 20.05 124.318 19.75C124.882 19.438 125.554 19.282 126.334 19.282C127.114 19.282 127.786 19.438 128.35 19.75C128.914 20.05 129.376 20.452 129.736 20.956C130.096 21.46 130.36 22.03 130.528 22.666C130.696 23.29 130.78 23.926 130.78 24.574C130.78 25.222 130.696 25.864 130.528 26.5C130.36 27.124 130.096 27.688 129.736 28.192C129.376 28.696 128.914 29.104 128.35 29.416C127.786 29.716 127.114 29.866 126.334 29.866C125.554 29.866 124.882 29.716 124.318 29.416C123.754 29.104 123.292 28.696 122.932 28.192C122.572 27.688 122.308 27.124 122.14 26.5C121.972 25.864 121.888 25.222 121.888 24.574ZM120.178 24.574C120.178 25.45 120.304 26.296 120.556 27.112C120.82 27.916 121.21 28.63 121.726 29.254C122.242 29.878 122.884 30.376 123.652 30.748C124.42 31.108 125.314 31.288 126.334 31.288C127.354 31.288 128.248 31.108 129.016 30.748C129.784 30.376 130.426 29.878 130.942 29.254C131.458 28.63 131.842 27.916 132.094 27.112C132.358 26.296 132.49 25.45 132.49 24.574C132.49 23.698 132.358 22.858 132.094 22.054C131.842 21.238 131.458 20.518 130.942 19.894C130.426 19.27 129.784 18.772 129.016 18.4C128.248 18.028 127.354 17.842 126.334 17.842C125.314 17.842 124.42 18.028 123.652 18.4C122.884 18.772 122.242 19.27 121.726 19.894C121.21 20.518 120.82 21.238 120.556 22.054C120.304 22.858 120.178 23.698 120.178 24.574ZM147.504 26.356V18.148H145.794V26.356C145.794 27.508 145.506 28.384 144.93 28.984C144.366 29.572 143.538 29.866 142.446 29.866C141.294 29.866 140.412 29.572 139.8 28.984C139.188 28.384 138.882 27.508 138.882 26.356V18.148H137.172V26.356C137.172 28.072 137.634 29.326 138.558 30.118C139.494 30.898 140.79 31.288 142.446 31.288C144.066 31.288 145.314 30.88 146.19 30.064C147.066 29.236 147.504 28 147.504 26.356ZM155.82 19.588V31H157.53V19.588H161.814V18.148H151.536V19.588H155.82Z" fill="white"/>
<rect x="0.5" y="0.5" width="205" height="47" stroke="black"/>
</svg>
