<svg width="206" height="48" viewBox="0 0 206 48" fill="none" xmlns="http://www.w3.org/2000/svg">
<path d="M17.541 24.574C17.541 23.926 17.625 23.29 17.793 22.666C17.961 22.03 18.225 21.46 18.585 20.956C18.945 20.452 19.407 20.05 19.971 19.75C20.535 19.438 21.207 19.282 21.987 19.282C22.767 19.282 23.439 19.438 24.003 19.75C24.567 20.05 25.029 20.452 25.389 20.956C25.749 21.46 26.013 22.03 26.181 22.666C26.349 23.29 26.433 23.926 26.433 24.574C26.433 25.222 26.349 25.864 26.181 26.5C26.013 27.124 25.749 27.688 25.389 28.192C25.029 28.696 24.567 29.104 24.003 29.416C23.439 29.716 22.767 29.866 21.987 29.866C21.207 29.866 20.535 29.716 19.971 29.416C19.407 29.104 18.945 28.696 18.585 28.192C18.225 27.688 17.961 27.124 17.793 26.5C17.625 25.864 17.541 25.222 17.541 24.574ZM15.831 24.574C15.831 25.45 15.957 26.296 16.209 27.112C16.473 27.916 16.863 28.63 17.379 29.254C17.895 29.878 18.537 30.376 19.305 30.748C20.073 31.108 20.967 31.288 21.987 31.288C23.007 31.288 23.901 31.108 24.669 30.748C25.437 30.376 26.079 29.878 26.595 29.254C27.111 28.63 27.495 27.916 27.747 27.112C28.011 26.296 28.143 25.45 28.143 24.574C28.143 23.698 28.011 22.858 27.747 22.054C27.495 21.238 27.111 20.518 26.595 19.894C26.079 19.27 25.437 18.772 24.669 18.4C23.901 18.028 23.007 17.842 21.987 17.842C20.967 17.842 20.073 18.028 19.305 18.4C18.537 18.772 17.895 19.27 17.379 19.894C16.863 20.518 16.473 21.238 16.209 22.054C15.957 22.858 15.831 23.698 15.831 24.574ZM32.8968 18.148V31H34.6068V25.51H38.7828C39.2028 25.51 39.5388 25.576 39.7908 25.708C40.0428 25.828 40.2468 25.996 40.4028 26.212C40.5588 26.416 40.6728 26.662 40.7448 26.95C40.8168 27.226 40.8768 27.52 40.9248 27.832C40.9848 28.144 41.0208 28.462 41.0328 28.786C41.0448 29.11 41.0568 29.416 41.0688 29.704C41.0808 29.98 41.1048 30.232 41.1408 30.46C41.1888 30.688 41.2728 30.868 41.3928 31H43.3008C43.1208 30.784 42.9828 30.538 42.8868 30.262C42.8028 29.974 42.7368 29.674 42.6888 29.362C42.6408 29.05 42.6108 28.732 42.5988 28.408C42.5868 28.084 42.5688 27.766 42.5448 27.454C42.5088 27.142 42.4548 26.842 42.3828 26.554C42.3228 26.266 42.2208 26.008 42.0768 25.78C41.9448 25.54 41.7588 25.336 41.5188 25.168C41.2908 25 40.9908 24.88 40.6188 24.808V24.772C41.3988 24.556 41.9628 24.154 42.3108 23.566C42.6708 22.978 42.8508 22.294 42.8508 21.514C42.8508 20.47 42.5028 19.648 41.8068 19.048C41.1228 18.448 40.1688 18.148 38.9448 18.148H32.8968ZM38.1708 24.07H34.6068V19.588H38.8548C39.6588 19.588 40.2408 19.792 40.6008 20.2C40.9608 20.608 41.1408 21.136 41.1408 21.784C41.1408 22.252 41.0568 22.636 40.8888 22.936C40.7328 23.224 40.5168 23.458 40.2408 23.638C39.9768 23.806 39.6648 23.92 39.3048 23.98C38.9448 24.04 38.5668 24.07 38.1708 24.07ZM49.599 29.56V19.588H52.479C53.271 19.588 53.937 19.702 54.477 19.93C55.017 20.146 55.455 20.47 55.791 20.902C56.139 21.322 56.385 21.838 56.529 22.45C56.685 23.05 56.763 23.734 56.763 24.502C56.763 25.294 56.679 25.972 56.511 26.536C56.355 27.088 56.151 27.55 55.899 27.922C55.647 28.294 55.359 28.588 55.035 28.804C54.723 29.02 54.405 29.188 54.081 29.308C53.757 29.416 53.451 29.488 53.163 29.524C52.875 29.548 52.635 29.56 52.443 29.56H49.599ZM47.889 18.148V31H52.299C53.367 31 54.291 30.85 55.071 30.55C55.851 30.25 56.493 29.818 56.997 29.254C57.501 28.678 57.873 27.976 58.113 27.148C58.353 26.308 58.473 25.348 58.473 24.268C58.473 22.204 57.939 20.668 56.871 19.66C55.803 18.652 54.279 18.148 52.299 18.148H47.889ZM63.2329 18.148V31H72.1609V29.56H64.9429V25.114H71.6209V23.674H64.9429V19.588H72.1069V18.148H63.2329ZM76.9068 18.148V31H78.6168V25.51H82.7928C83.2128 25.51 83.5488 25.576 83.8008 25.708C84.0528 25.828 84.2568 25.996 84.4128 26.212C84.5688 26.416 84.6828 26.662 84.7548 26.95C84.8268 27.226 84.8868 27.52 84.9348 27.832C84.9948 28.144 85.0308 28.462 85.0428 28.786C85.0548 29.11 85.0668 29.416 85.0788 29.704C85.0908 29.98 85.1148 30.232 85.1508 30.46C85.1988 30.688 85.2828 30.868 85.4028 31H87.3108C87.1308 30.784 86.9928 30.538 86.8968 30.262C86.8128 29.974 86.7468 29.674 86.6988 29.362C86.6508 29.05 86.6208 28.732 86.6088 28.408C86.5968 28.084 86.5788 27.766 86.5548 27.454C86.5188 27.142 86.4648 26.842 86.3928 26.554C86.3328 26.266 86.2308 26.008 86.0868 25.78C85.9548 25.54 85.7688 25.336 85.5288 25.168C85.3008 25 85.0008 24.88 84.6288 24.808V24.772C85.4088 24.556 85.9728 24.154 86.3208 23.566C86.6808 22.978 86.8608 22.294 86.8608 21.514C86.8608 20.47 86.5128 19.648 85.8168 19.048C85.1328 18.448 84.1788 18.148 82.9548 18.148H76.9068ZM82.1808 24.07H78.6168V19.588H82.8648C83.6688 19.588 84.2508 19.792 84.6108 20.2C84.9708 20.608 85.1508 21.136 85.1508 21.784C85.1508 22.252 85.0668 22.636 84.8988 22.936C84.7428 23.224 84.5268 23.458 84.2508 23.638C83.9868 23.806 83.6748 23.92 83.3148 23.98C82.9548 24.04 82.5768 24.07 82.1808 24.07ZM99.5788 18.148V31H101.289V25.114H108.057V31H109.767V18.148H108.057V23.674H101.289V18.148H99.5788ZM115.311 18.148V31H117.021V18.148H115.311ZM130.001 21.91H131.621C131.597 21.202 131.459 20.596 131.207 20.092C130.967 19.576 130.631 19.15 130.199 18.814C129.779 18.478 129.287 18.232 128.723 18.076C128.159 17.92 127.547 17.842 126.887 17.842C126.299 17.842 125.723 17.92 125.159 18.076C124.607 18.22 124.109 18.448 123.665 18.76C123.233 19.06 122.885 19.45 122.621 19.93C122.357 20.398 122.225 20.956 122.225 21.604C122.225 22.192 122.339 22.684 122.567 23.08C122.807 23.464 123.119 23.782 123.503 24.034C123.899 24.274 124.343 24.472 124.835 24.628C125.327 24.772 125.825 24.904 126.329 25.024C126.845 25.132 127.349 25.24 127.841 25.348C128.333 25.456 128.771 25.6 129.155 25.78C129.551 25.948 129.863 26.17 130.091 26.446C130.331 26.722 130.451 27.082 130.451 27.526C130.451 27.994 130.355 28.378 130.163 28.678C129.971 28.978 129.719 29.218 129.407 29.398C129.095 29.566 128.741 29.686 128.345 29.758C127.961 29.83 127.577 29.866 127.193 29.866C126.713 29.866 126.245 29.806 125.789 29.686C125.333 29.566 124.931 29.38 124.583 29.128C124.247 28.876 123.971 28.558 123.755 28.174C123.551 27.778 123.449 27.31 123.449 26.77H121.829C121.829 27.55 121.967 28.228 122.243 28.804C122.531 29.368 122.915 29.836 123.395 30.208C123.887 30.568 124.451 30.838 125.087 31.018C125.735 31.198 126.419 31.288 127.139 31.288C127.727 31.288 128.315 31.216 128.903 31.072C129.503 30.94 130.043 30.724 130.523 30.424C131.003 30.112 131.393 29.716 131.693 29.236C132.005 28.744 132.161 28.156 132.161 27.472C132.161 26.836 132.041 26.308 131.801 25.888C131.573 25.468 131.261 25.12 130.865 24.844C130.481 24.568 130.043 24.352 129.551 24.196C129.059 24.028 128.555 23.884 128.039 23.764C127.535 23.644 127.037 23.536 126.545 23.44C126.053 23.332 125.609 23.2 125.213 23.044C124.829 22.888 124.517 22.69 124.277 22.45C124.049 22.198 123.935 21.874 123.935 21.478C123.935 21.058 124.013 20.71 124.169 20.434C124.337 20.146 124.553 19.918 124.817 19.75C125.093 19.582 125.405 19.462 125.753 19.39C126.101 19.318 126.455 19.282 126.815 19.282C127.703 19.282 128.429 19.492 128.993 19.912C129.569 20.32 129.905 20.986 130.001 21.91ZM139.825 19.588V31H141.535V19.588H145.819V18.148H135.541V19.588H139.825ZM150.905 24.574C150.905 23.926 150.989 23.29 151.157 22.666C151.325 22.03 151.589 21.46 151.949 20.956C152.309 20.452 152.771 20.05 153.335 19.75C153.899 19.438 154.571 19.282 155.351 19.282C156.131 19.282 156.803 19.438 157.367 19.75C157.931 20.05 158.393 20.452 158.753 20.956C159.113 21.46 159.377 22.03 159.545 22.666C159.713 23.29 159.797 23.926 159.797 24.574C159.797 25.222 159.713 25.864 159.545 26.5C159.377 27.124 159.113 27.688 158.753 28.192C158.393 28.696 157.931 29.104 157.367 29.416C156.803 29.716 156.131 29.866 155.351 29.866C154.571 29.866 153.899 29.716 153.335 29.416C152.771 29.104 152.309 28.696 151.949 28.192C151.589 27.688 151.325 27.124 151.157 26.5C150.989 25.864 150.905 25.222 150.905 24.574ZM149.195 24.574C149.195 25.45 149.321 26.296 149.573 27.112C149.837 27.916 150.227 28.63 150.743 29.254C151.259 29.878 151.901 30.376 152.669 30.748C153.437 31.108 154.331 31.288 155.351 31.288C156.371 31.288 157.265 31.108 158.033 30.748C158.801 30.376 159.443 29.878 159.959 29.254C160.475 28.63 160.859 27.916 161.111 27.112C161.375 26.296 161.507 25.45 161.507 24.574C161.507 23.698 161.375 22.858 161.111 22.054C160.859 21.238 160.475 20.518 159.959 19.894C159.443 19.27 158.801 18.772 158.033 18.4C157.265 18.028 156.371 17.842 155.351 17.842C154.331 17.842 153.437 18.028 152.669 18.4C151.901 18.772 151.259 19.27 150.743 19.894C150.227 20.518 149.837 21.238 149.573 22.054C149.321 22.858 149.195 23.698 149.195 24.574ZM166.261 18.148V31H167.971V25.51H172.147C172.567 25.51 172.903 25.576 173.155 25.708C173.407 25.828 173.611 25.996 173.767 26.212C173.923 26.416 174.037 26.662 174.109 26.95C174.181 27.226 174.241 27.52 174.289 27.832C174.349 28.144 174.385 28.462 174.397 28.786C174.409 29.11 174.421 29.416 174.433 29.704C174.445 29.98 174.469 30.232 174.505 30.46C174.553 30.688 174.637 30.868 174.757 31H176.665C176.485 30.784 176.347 30.538 176.251 30.262C176.167 29.974 176.101 29.674 176.053 29.362C176.005 29.05 175.975 28.732 175.963 28.408C175.951 28.084 175.933 27.766 175.909 27.454C175.873 27.142 175.819 26.842 175.747 26.554C175.687 26.266 175.585 26.008 175.441 25.78C175.309 25.54 175.123 25.336 174.883 25.168C174.655 25 174.355 24.88 173.983 24.808V24.772C174.763 24.556 175.327 24.154 175.675 23.566C176.035 22.978 176.215 22.294 176.215 21.514C176.215 20.47 175.867 19.648 175.171 19.048C174.487 18.448 173.533 18.148 172.309 18.148H166.261ZM171.535 24.07H167.971V19.588H172.219C173.023 19.588 173.605 19.792 173.965 20.2C174.325 20.608 174.505 21.136 174.505 21.784C174.505 22.252 174.421 22.636 174.253 22.936C174.097 23.224 173.881 23.458 173.605 23.638C173.341 23.806 173.029 23.92 172.669 23.98C172.309 24.04 171.931 24.07 171.535 24.07ZM185.895 25.744L190.809 18.148H188.865L185.103 24.268L181.251 18.148H179.217L184.185 25.744V31H185.895V25.744Z" fill="black"/>
<rect x="0.5" y="0.5" width="205" height="47" stroke="black"/>
</svg>
